<svg width="29" height="25" viewBox="0 0 29 25" fill="none" xmlns="http://www.w3.org/2000/svg">
<path fill-rule="evenodd" clip-rule="evenodd" d="M4.83334 7.73789V17.2617C4.83334 17.8932 5.12432 18.4988 5.64228 18.9453C6.16024 19.3918 6.86274 19.6426 7.59524 19.6426H21.4048C22.1373 19.6426 22.8398 19.3918 23.3577 18.9453C23.8757 18.4988 24.1667 17.8932 24.1667 17.2617V7.73789C24.1667 7.10642 23.8757 6.50081 23.3577 6.0543C22.8398 5.60778 22.1373 5.35693 21.4048 5.35693H7.59524C6.86274 5.35693 6.16024 5.60778 5.64228 6.0543C5.12432 6.50081 4.83334 7.10642 4.83334 7.73789Z" stroke="#45494D" stroke-linecap="round" stroke-linejoin="round"/>
<path d="M7.59524 8.92822L14.5 12.4997L21.4048 8.92822" stroke="#45494D" stroke-linecap="round" stroke-linejoin="round"/>
</svg>
