<svg width="22" height="22" viewBox="0 0 22 22" fill="none" xmlns="http://www.w3.org/2000/svg">
<path d="M11 5.67188C10.3541 5.67188 9.72274 5.8634 9.18572 6.22223C8.64869 6.58106 8.23012 7.09109 7.98296 7.6878C7.73579 8.28452 7.67112 8.94112 7.79712 9.57459C7.92313 10.2081 8.23415 10.7899 8.69085 11.2466C9.14756 11.7034 9.72944 12.0144 10.3629 12.1404C10.9964 12.2664 11.653 12.2017 12.2497 11.9545C12.8464 11.7074 13.3564 11.2888 13.7153 10.7518C14.0741 10.2148 14.2656 9.58338 14.2656 8.9375C14.2656 8.0714 13.9216 7.24078 13.3091 6.62836C12.6967 6.01593 11.8661 5.67188 11 5.67188ZM11 11.1719C10.5581 11.1719 10.1261 11.0408 9.75865 10.7953C9.39121 10.5498 9.10482 10.2008 8.93571 9.79256C8.76659 9.38428 8.72234 8.93502 8.80856 8.5016C8.89477 8.06817 9.10758 7.67004 9.42006 7.35756C9.73254 7.04508 10.1307 6.83227 10.5641 6.74606C10.9975 6.65984 11.4468 6.70409 11.8551 6.87321C12.2633 7.04232 12.6123 7.32871 12.8578 7.69615C13.1033 8.06359 13.2344 8.49558 13.2344 8.9375C13.2344 9.53009 12.999 10.0984 12.5799 10.5174C12.1609 10.9365 11.5926 11.1719 11 11.1719ZM11 1.54688C9.04058 1.54915 7.16207 2.32853 5.77655 3.71405C4.39103 5.09957 3.61165 6.97808 3.60938 8.9375C3.60938 11.5938 4.84172 14.4152 7.1732 17.0964C8.22552 18.3125 9.40986 19.4078 10.7044 20.362C10.791 20.4227 10.8942 20.4552 11 20.4552C11.1058 20.4552 11.209 20.4227 11.2956 20.362C12.5901 19.4078 13.7745 18.3125 14.8268 17.0964C17.1583 14.4152 18.3906 11.5964 18.3906 8.9375C18.3884 6.97808 17.609 5.09957 16.2234 3.71405C14.8379 2.32853 12.9594 1.54915 11 1.54688ZM11 19.2938C9.71094 18.2987 4.64062 14.0611 4.64062 8.9375C4.64062 7.25089 5.31063 5.63336 6.50324 4.44074C7.69586 3.24813 9.31339 2.57813 11 2.57813C12.6866 2.57813 14.3041 3.24813 15.4968 4.44074C16.6894 5.63336 17.3594 7.25089 17.3594 8.9375C17.3594 14.0611 12.2891 18.2987 11 19.2938Z" fill="#45494D"/>
</svg>
