<svg width="28" height="28" viewBox="0 0 28 28" fill="none" xmlns="http://www.w3.org/2000/svg">
<path d="M14 2.625C12.0361 2.62457 10.1056 3.1326 8.39635 4.09963C6.68708 5.06665 5.25728 6.45974 4.24614 8.1433C3.23499 9.82685 2.67694 11.7435 2.62631 13.7067C2.57568 15.6699 3.03418 17.6128 3.9572 19.3463L2.71579 23.0705C2.61296 23.3788 2.59804 23.7097 2.6727 24.026C2.74735 24.3424 2.90864 24.6317 3.13847 24.8615C3.36831 25.0914 3.65761 25.2527 3.97396 25.3273C4.29031 25.402 4.6212 25.387 4.92954 25.2842L8.65376 24.0428C10.1793 24.8542 11.8696 25.3074 13.5964 25.368C15.3233 25.4286 17.0412 25.095 18.6199 24.3925C20.1985 23.69 21.5964 22.6372 22.7074 21.3138C23.8183 19.9904 24.6132 18.4313 25.0317 16.7549C25.4502 15.0784 25.4812 13.3287 25.1225 11.6384C24.7638 9.94817 24.0247 8.36187 22.9614 6.99991C21.898 5.63795 20.5384 4.53613 18.9857 3.77809C17.4329 3.02005 15.7279 2.62571 14 2.625ZM19.8691 12.8691L16.3691 16.3691C16.2878 16.4504 16.1913 16.515 16.0851 16.559C15.9789 16.603 15.865 16.6257 15.75 16.6257C15.635 16.6257 15.5212 16.603 15.4149 16.559C15.3087 16.515 15.2122 16.4504 15.1309 16.3691L12.25 13.487L9.36907 16.3691C9.20489 16.5332 8.9822 16.6255 8.75001 16.6255C8.51782 16.6255 8.29513 16.5332 8.13095 16.3691C7.96676 16.2049 7.87453 15.9822 7.87453 15.75C7.87453 15.5178 7.96676 15.2951 8.13095 15.1309L11.6309 11.6309C11.7122 11.5496 11.8087 11.485 11.9149 11.441C12.0212 11.397 12.135 11.3743 12.25 11.3743C12.365 11.3743 12.4789 11.397 12.5851 11.441C12.6913 11.485 12.7878 11.5496 12.8691 11.6309L15.75 14.513L18.6309 11.6309C18.7122 11.5496 18.8088 11.4852 18.915 11.4412C19.0212 11.3972 19.135 11.3745 19.25 11.3745C19.365 11.3745 19.4788 11.3972 19.585 11.4412C19.6913 11.4852 19.7878 11.5496 19.8691 11.6309C19.9504 11.7122 20.0149 11.8087 20.0589 11.915C20.1029 12.0212 20.1255 12.135 20.1255 12.25C20.1255 12.365 20.1029 12.4788 20.0589 12.585C20.0149 12.6913 19.9504 12.7878 19.8691 12.8691Z" fill="#6E7A94"/>
</svg>
