<svg width="15" height="15" viewBox="0 0 15 15" fill="none" xmlns="http://www.w3.org/2000/svg">
<path d="M12.2965 12.929C12.4775 12.929 12.6284 12.8686 12.749 12.748C12.8697 12.6273 12.9301 12.4764 12.9301 12.2954V9.85167C12.9301 9.71088 12.8848 9.58758 12.7943 9.48179C12.7038 9.37599 12.5881 9.30821 12.4473 9.27844L10.3656 8.85607C10.2248 8.83595 10.0814 8.84862 9.9354 8.89408C9.78938 8.93954 9.67132 9.00732 9.58121 9.09742L8.16323 10.5154C7.39893 10.0528 6.7 9.50472 6.06643 8.87115C5.43287 8.23759 4.9049 7.55877 4.48252 6.83469L5.93067 5.35637C6.02118 5.26587 6.07911 5.16268 6.10445 5.04683C6.12979 4.93098 6.1322 4.80286 6.11169 4.66247L5.71948 2.55059C5.69937 2.40979 5.634 2.29414 5.52338 2.20363C5.41276 2.11313 5.28705 2.06787 5.14626 2.06787H2.70251C2.52149 2.06787 2.37064 2.12821 2.24996 2.24889C2.12928 2.36957 2.06894 2.52042 2.06894 2.70144C2.06894 3.99874 2.35817 5.26345 2.93662 6.49558C3.51508 7.72772 4.27938 8.81886 5.22953 9.769C6.17967 10.7191 7.27081 11.4834 8.50294 12.0619C9.73508 12.6404 10.9996 12.9294 12.2965 12.929Z" fill="white"/>
</svg>
