<svg width="28" height="28" viewBox="0 0 28 28" fill="none" xmlns="http://www.w3.org/2000/svg">
<path d="M14 2.3335C7.55998 2.3335 2.33331 7.56016 2.33331 14.0002C2.33331 20.4402 7.55998 25.6668 14 25.6668C20.44 25.6668 25.6666 20.4402 25.6666 14.0002C25.6666 7.56016 20.44 2.3335 14 2.3335ZM19.4133 10.2668C19.2383 12.1102 18.48 16.5902 18.095 18.6552C17.9316 19.5302 17.605 19.8218 17.3016 19.8568C16.625 19.9152 16.1116 19.4135 15.4583 18.9818C14.4316 18.3052 13.8483 17.8852 12.8566 17.2318C11.7016 16.4735 12.4483 16.0535 13.1133 15.3768C13.2883 15.2018 16.275 12.4835 16.3333 12.2385C16.3414 12.2014 16.3403 12.1629 16.3302 12.1263C16.32 12.0897 16.3011 12.0561 16.275 12.0285C16.205 11.9702 16.1116 11.9935 16.03 12.0052C15.925 12.0285 14.2916 13.1135 11.1066 15.2602C10.64 15.5752 10.22 15.7385 9.84665 15.7268C9.42665 15.7152 8.63331 15.4935 8.03831 15.2952C7.30331 15.0618 6.73165 14.9335 6.77831 14.5252C6.80165 14.3152 7.09331 14.1052 7.64165 13.8835C11.0483 12.4018 13.3116 11.4218 14.4433 10.9552C17.6866 9.60183 18.3516 9.3685 18.795 9.3685C18.8883 9.3685 19.11 9.39183 19.25 9.5085C19.3666 9.60183 19.4016 9.73016 19.4133 9.8235C19.4016 9.8935 19.425 10.1035 19.4133 10.2668Z" fill="#6E7A94"/>
</svg>
