<svg width="40" height="40" viewBox="0 0 40 40" fill="none" xmlns="http://www.w3.org/2000/svg">
<path d="M8.82658 26.3264C8.47434 26.6786 7.9966 26.8765 7.49846 26.8765C7.00031 26.8765 6.52257 26.6786 6.17033 26.3264C5.81809 25.9741 5.6202 25.4964 5.6202 24.9983C5.6202 24.5001 5.81809 24.0224 6.17033 23.6701L18.6703 11.1701C18.8445 10.9953 19.0515 10.8566 19.2794 10.762C19.5073 10.6674 19.7517 10.6187 19.9985 10.6187C20.2452 10.6187 20.4896 10.6674 20.7175 10.762C20.9454 10.8566 21.1524 10.9953 21.3266 11.1701L33.8266 23.6701C34.1788 24.0224 34.3767 24.5001 34.3767 24.9983C34.3767 25.4964 34.1788 25.9741 33.8266 26.3264C33.4743 26.6786 32.9966 26.8765 32.4985 26.8765C32.0003 26.8765 31.5226 26.6786 31.1703 26.3264L20 15.1561L8.82658 26.3264Z" fill="white"/>
</svg>
