<svg width="28" height="28" viewBox="0 0 28 28" fill="none" xmlns="http://www.w3.org/2000/svg">
<path d="M14.0012 2.3335C20.4447 2.3335 25.6678 7.55666 25.6678 14.0002C25.6678 20.4437 20.4447 25.6668 14.0012 25.6668C11.9394 25.6702 9.91392 25.1245 8.13282 24.086L2.33916 25.6668L3.91649 19.8708C2.8771 18.0892 2.33104 16.0628 2.33449 14.0002C2.33449 7.55666 7.55766 2.3335 14.0012 2.3335ZM10.0252 8.51683L9.79182 8.52616C9.64076 8.53536 9.49313 8.57505 9.35782 8.64283C9.23126 8.7145 9.11573 8.80409 9.01482 8.90883C8.87482 9.04066 8.79549 9.155 8.71032 9.26583C8.2788 9.82688 8.04646 10.5157 8.04999 11.2235C8.05232 11.7952 8.20166 12.3517 8.43499 12.872C8.91216 13.9243 9.69732 15.0385 10.7333 16.071C10.983 16.3195 11.228 16.5692 11.4917 16.8013C12.7789 17.9347 14.313 18.752 15.9717 19.1883L16.6343 19.2898C16.8502 19.3015 17.066 19.2852 17.283 19.2747C17.6228 19.2571 17.9545 19.1651 18.2548 19.0052C18.4076 18.9265 18.5567 18.8408 18.7017 18.7485C18.7017 18.7485 18.7518 18.7158 18.8475 18.6435C19.005 18.5268 19.1018 18.444 19.2325 18.3075C19.3293 18.2072 19.4133 18.0893 19.4775 17.9552C19.5685 17.765 19.6595 17.4022 19.6968 17.1C19.7248 16.869 19.7167 16.743 19.7132 16.6648C19.7085 16.54 19.6047 16.4105 19.4915 16.3557L18.8125 16.0512C18.8125 16.0512 17.7975 15.609 17.1768 15.3267C17.1119 15.2983 17.0423 15.2821 16.9715 15.2788C16.8917 15.2706 16.811 15.2796 16.7349 15.3052C16.6589 15.3307 16.5892 15.3723 16.5305 15.427C16.5247 15.4247 16.4465 15.4912 15.603 16.5132C15.5546 16.5782 15.4879 16.6274 15.4114 16.6544C15.335 16.6814 15.2522 16.685 15.1737 16.6648C15.0977 16.6445 15.0232 16.6187 14.9508 16.5878C14.8062 16.5272 14.756 16.5038 14.6568 16.4618C13.9872 16.1696 13.3673 15.7748 12.8193 15.2917C12.6723 15.1633 12.5358 15.0233 12.3958 14.888C11.9368 14.4484 11.5368 13.9512 11.2058 13.4087L11.137 13.2978C11.0875 13.2234 11.0476 13.143 11.018 13.0587C10.9737 12.8872 11.0892 12.7495 11.0892 12.7495C11.0892 12.7495 11.3727 12.4392 11.5045 12.2712C11.6328 12.1078 11.7413 11.9492 11.8113 11.836C11.949 11.6143 11.9922 11.3868 11.9198 11.2107C11.5932 10.4127 11.2548 9.61816 10.9072 8.8295C10.8383 8.67316 10.6342 8.56116 10.4487 8.539C10.3857 8.532 10.3227 8.525 10.2597 8.52033C10.103 8.51255 9.94598 8.5141 9.78949 8.525L10.024 8.51566L10.0252 8.51683Z" fill="#6E7A94"/>
</svg>
